<?xml version="1.0" encoding="UTF-8" standalone="no"?>
<!-- Created with Inkscape (http://www.inkscape.org/) -->

<svg
   xmlns:osb="http://www.openswatchbook.org/uri/2009/osb"
   xmlns:dc="http://purl.org/dc/elements/1.1/"
   xmlns:cc="http://creativecommons.org/ns#"
   xmlns:rdf="http://www.w3.org/1999/02/22-rdf-syntax-ns#"
   xmlns:svg="http://www.w3.org/2000/svg"
   xmlns="http://www.w3.org/2000/svg"
   xmlns:sodipodi="http://sodipodi.sourceforge.net/DTD/sodipodi-0.dtd"
   xmlns:inkscape="http://www.inkscape.org/namespaces/inkscape"
   version="1.1"
   id="svg2966"
   width="563.52197"
   height="563.52197"
   viewBox="0 0 563.52197 563.52197"
   sodipodi:docname="safefavicon.svg"
   inkscape:version="0.92.4 (5da689c313, 2019-01-14)">
  <metadata
     id="metadata2972">
    <rdf:RDF>
      <cc:Work
         rdf:about="">
        <dc:format>image/svg+xml</dc:format>
        <dc:type
           rdf:resource="http://purl.org/dc/dcmitype/StillImage" />
        <dc:title></dc:title>
      </cc:Work>
    </rdf:RDF>
  </metadata>
  <defs
     id="defs2970">
    <linearGradient
       id="linearGradient2071"
       osb:paint="solid">
      <stop
         style="stop-color:#000000;stop-opacity:1;"
         offset="0"
         id="stop2069" />
    </linearGradient>
  </defs>
  <sodipodi:namedview
     pagecolor="#ffffff"
     bordercolor="#666666"
     borderopacity="1"
     objecttolerance="10"
     gridtolerance="10"
     guidetolerance="10"
     inkscape:pageopacity="0"
     inkscape:pageshadow="2"
     inkscape:window-width="1920"
     inkscape:window-height="1017"
     id="namedview2968"
     showgrid="false"
     inkscape:zoom="1.28"
     inkscape:cx="292.17533"
     inkscape:cy="236.85688"
     inkscape:window-x="-8"
     inkscape:window-y="-8"
     inkscape:window-maximized="1"
     inkscape:current-layer="svg2966"
     fit-margin-top="0"
     fit-margin-left="0"
     fit-margin-right="0"
     fit-margin-bottom="0"
     inkscape:pagecheckerboard="true" />
  <rect
     style="fill:#000000;fill-rule:evenodd"
     id="rect1528"
     width="568.75"
     height="568.75"
     x="1216.4062"
     y="-14.603029" />
  <text
     xml:space="preserve"
     style="font-style:normal;font-variant:normal;font-weight:normal;font-stretch:normal;font-size:192px;line-height:1.25;font-family:'Microsoft YaHei UI';-inkscape-font-specification:'Microsoft YaHei UI';letter-spacing:0px;word-spacing:0px;fill:#000000;fill-opacity:1;stroke:none"
     x="-474.96826"
     y="136.85522"
     id="text2978"><tspan
       sodipodi:role="line"
       id="tspan2976"
       x="-474.96826"
       y="307.18701" /></text>
  <text
     xml:space="preserve"
     style="font-style:normal;font-variant:normal;font-weight:normal;font-stretch:normal;font-size:192px;line-height:1.25;font-family:'Segoe UI Symbol';-inkscape-font-specification:'Segoe UI Symbol';letter-spacing:0px;word-spacing:0px;fill:#000000;fill-opacity:1;stroke:none"
     x="-56.352051"
     y="418.61621"
     id="text2996"><tspan
       sodipodi:role="line"
       id="tspan2994"
       x="-56.352051"
       y="591.56104" /></text>
  <rect
     style="fill:none;fill-rule:evenodd;stroke:#000000;stroke-width:7.97905493;stroke-miterlimit:4;stroke-dasharray:none;stroke-opacity:1"
     id="rect5656"
     width="518.4339"
     height="449.94528"
     x="29.870701"
     y="31.80031" />
  <ellipse
     style="opacity:1;fill:none;fill-opacity:1;stroke:#000000;stroke-width:5.25751543;stroke-linejoin:round;stroke-miterlimit:4;stroke-dasharray:none;stroke-opacity:1"
     id="path5670"
     cx="282.0126"
     cy="282.51569"
     r="279.87125" />
  <rect
     style="fill:none;fill-rule:evenodd;stroke:#000000;stroke-width:8.32361889;stroke-miterlimit:4;stroke-dasharray:none;stroke-opacity:1"
     id="rect5678"
     width="66.776878"
     height="55.472523"
     x="111.92294"
     y="482.81357" />
  <rect
     style="fill:none;fill-rule:evenodd;stroke:#000000;stroke-width:8.37277508;stroke-miterlimit:4;stroke-dasharray:none;stroke-opacity:1"
     id="rect5680"
     width="66.776878"
     height="56.129662"
     x="395.72467"
     y="482.1564" />
  <rect
     style="fill:none;fill-rule:evenodd;stroke:#000000;stroke-width:7.96281195;stroke-miterlimit:4;stroke-dasharray:none;stroke-opacity:1"
     id="rect5704"
     width="419.04175"
     height="370.74219"
     x="78.525993"
     y="70.235992" />
  <rect
     style="fill:#598d80;fill-opacity:1;fill-rule:evenodd;stroke-width:1.59581101"
     id="rect5716"
     width="35.057858"
     height="15.446939"
     x="66.848549"
     y="172.19357" />
  <rect
     style="fill:#598d80;fill-opacity:1;fill-rule:evenodd;stroke-width:1.59581101"
     id="rect5718"
     width="26.710747"
     height="15.446939"
     x="68.517975"
     y="322.02896" />
  <rect
     style="fill:none;fill-rule:evenodd;stroke:#000000;stroke-width:7.92776155;stroke-miterlimit:4;stroke-dasharray:none;stroke-opacity:1"
     id="rect5722"
     width="377.34268"
     height="335.24796"
     x="98.540947"
     y="88.755455" />
  <rect
     style="fill:#598d80;fill-opacity:1;fill-rule:evenodd;stroke-width:1.59581101"
     id="rect5729"
     width="35.057869"
     height="15.446946"
     x="66.848549"
     y="172.19357" />
  <rect
     style="fill:#598d80;fill-opacity:1;fill-rule:evenodd;stroke-width:1.59581101"
     id="rect5737"
     width="45.074383"
     height="16.991653"
     x="68.517975"
     y="320.48422" />
  <rect
     style="fill:#598d80;fill-opacity:1;fill-rule:evenodd;stroke-width:1.59581101"
     id="rect5741"
     width="53.42149"
     height="15.44693"
     x="66.848549"
     y="172.19357" />
  <rect
     style="fill:none;fill-rule:evenodd;stroke:#000000;stroke-width:7.72828674;stroke-miterlimit:4;stroke-dasharray:none;stroke-opacity:1"
     id="rect5743"
     width="80.392937"
     height="18.777548"
     x="50.023941"
     y="170.52827" />
  <rect
     style="fill:none;fill-rule:evenodd;stroke:#000000;stroke-width:8.52960777;stroke-miterlimit:4;stroke-dasharray:none;stroke-opacity:1"
     id="rect5747"
     width="82.898743"
     height="19.551434"
     x="48.771095"
     y="320.74899" />
  <rect
     style="fill:#000000;fill-opacity:0;fill-rule:evenodd;stroke-width:1.80010688"
     id="rect976"
     width="71.585068"
     height="40.81287"
     x="107.11475"
     y="497.47318" />
  <rect
     style="fill:#000000;fill-opacity:1;fill-rule:evenodd;stroke-width:1.59581101"
     id="rect1639"
     width="80.392952"
     height="18.777557"
     x="50.023941"
     y="170.52827" />
  <rect
     style="fill:#000000;fill-opacity:1;fill-rule:evenodd;stroke-width:1.59581101"
     id="rect1641"
     width="82.89875"
     height="19.551428"
     x="48.771095"
     y="320.74899" />
  <path
     style="fill:#ffecb3;fill-opacity:0;stroke:none;stroke-width:1.60584724"
     d="M 102.61237,381.97946 V 344.9068 h 17.59158 17.59158 l -0.48,-14.28842 -0.48002,-14.28844 -17.11158,-0.44019 -17.11156,-0.44024 v -60.96134 -60.96138 h 16.7592 16.75921 l -0.48235,-13.51608 -0.48235,-13.51607 -16.27686,-0.4421 -16.27685,-0.44214 V 129.36603 93.121677 H 287.0835 471.55461 V 256.08688 419.0521 H 287.0835 102.61237 Z m 257.09096,-26.07202 v -5.99098 l 11.03431,-2.56464 c 12.22188,-2.84065 24.56289,-8.17185 35.19765,-15.20505 l 7.00054,-4.62973 6.89218,5.05086 6.89216,5.05088 7.31763,-7.55501 c 4.02467,-4.15527 7.35126,-8.37333 7.39241,-9.37345 0.0409,-1.00012 -2.61247,-3.86798 -5.8969,-6.37302 l -5.97172,-4.55462 4.99442,-9.15467 c 5.00725,-9.1782 9.10478,-20.94939 11.0617,-31.7774 0.93403,-5.16812 1.57865,-5.7926 5.97949,-5.7926 h 4.9326 v -13.12989 -13.12991 l -6.26029,-0.0136 -6.26036,-0.0136 -3.69564,-11.1846 c -2.03264,-6.15149 -6.41291,-14.97977 -9.73396,-19.6184 l -6.03831,-8.4338 5.1581,-3.92376 c 2.83697,-2.15804 5.1289,-4.61882 5.09321,-5.46839 -0.0356,-0.84959 -2.94481,-4.62778 -6.46481,-8.39593 l -6.39998,-6.85125 -6.39848,4.88014 -6.39849,4.88013 -5.098,-3.15251 c -9.60266,-5.93797 -25.13174,-12.23221 -34.73026,-14.0767 l -9.5992,-1.84463 v -6.64205 -6.64208 h -12.52064 -12.52068 v 6.59989 6.59987 l -9.47074,2.03737 c -10.09475,2.17159 -25.46238,8.53028 -33.6444,13.92111 -5.93588,3.91095 -7.53896,4.04867 -10.37101,0.89119 -1.17861,-1.31404 -4.14735,-3.7098 -6.59726,-5.32393 l -4.4543,-2.93476 -7.89025,8.68325 -7.89022,8.68331 6.72939,5.52263 6.72938,5.52264 -7.3595,13.70836 c -4.04773,7.53961 -7.85139,16.40229 -8.45257,19.69485 l -1.09308,5.98649 h -8.20036 -8.20039 v 12.35752 12.35757 h 7.36568 7.36566 l 1.18221,6.56496 c 2.10325,11.67947 7.2023,24.89419 13.10395,33.96025 l 5.76684,8.85901 -6.55266,5.04322 -6.55266,5.04326 6.27207,7.26324 c 3.44964,3.99478 6.91518,7.29655 7.70124,7.33729 0.78604,0.0408 4.35146,-2.06748 7.92315,-4.68494 l 6.49396,-4.75903 10.42075,6.30021 c 9.38928,5.67657 22.43394,10.56643 35.08421,13.15143 4.0697,0.83162 4.59091,1.63632 4.59091,7.08747 v 6.14935 h 12.52068 12.52064 z"
     id="path2224"
     inkscape:connector-curvature="0" />
  <path
     style="fill:#ffc107;fill-opacity:0;stroke:none;stroke-width:1.60584724"
     d="M 102.61237,381.97946 V 344.9068 h 17.59158 17.59158 l -0.48,-14.28842 -0.48002,-14.28844 -17.11158,-0.44019 -17.11156,-0.44024 v -60.96134 -60.96138 h 16.7592 16.75921 l -0.48235,-13.51608 -0.48235,-13.51607 -16.27686,-0.4421 -16.27685,-0.44214 V 129.36603 93.121677 H 287.0835 471.55461 V 256.08688 419.0521 H 287.0835 102.61237 Z m 257.09096,-26.07202 v -5.99098 l 11.03431,-2.56464 c 12.22188,-2.84065 24.56289,-8.17185 35.19765,-15.20505 l 7.00054,-4.62973 6.89218,5.05086 6.89216,5.05088 7.31763,-7.55501 c 4.02467,-4.15527 7.35126,-8.37333 7.39241,-9.37345 0.0409,-1.00012 -2.61247,-3.86798 -5.8969,-6.37302 l -5.97172,-4.55462 4.99442,-9.15467 c 5.00725,-9.1782 9.10478,-20.94939 11.0617,-31.7774 0.93403,-5.16812 1.57865,-5.7926 5.97949,-5.7926 h 4.9326 v -13.12989 -13.12991 l -6.26029,-0.0136 -6.26036,-0.0136 -3.69564,-11.1846 c -2.03264,-6.15149 -6.41291,-14.97977 -9.73396,-19.6184 l -6.03831,-8.4338 5.1581,-3.92376 c 2.83697,-2.15804 5.1289,-4.61882 5.09321,-5.46839 -0.0356,-0.84959 -2.94481,-4.62778 -6.46481,-8.39593 l -6.39998,-6.85125 -6.39848,4.88014 -6.39849,4.88013 -5.098,-3.15251 c -9.60266,-5.93797 -25.13174,-12.23221 -34.73026,-14.0767 l -9.5992,-1.84463 v -6.64205 -6.64208 h -12.52064 -12.52068 v 6.59989 6.59987 l -9.47074,2.03737 c -10.09475,2.17159 -25.46238,8.53028 -33.6444,13.92111 -5.93588,3.91095 -7.53896,4.04867 -10.37101,0.89119 -1.17861,-1.31404 -4.14735,-3.7098 -6.59726,-5.32393 l -4.4543,-2.93476 -7.89025,8.68325 -7.89022,8.68331 6.72939,5.52263 6.72938,5.52264 -7.3595,13.70836 c -4.04773,7.53961 -7.85139,16.40229 -8.45257,19.69485 l -1.09308,5.98649 h -8.20036 -8.20039 v 12.35752 12.35757 h 7.36568 7.36566 l 1.18221,6.56496 c 2.10325,11.67947 7.2023,24.89419 13.10395,33.96025 l 5.76684,8.85901 -6.55266,5.04322 -6.55266,5.04326 6.27207,7.26324 c 3.44964,3.99478 6.91518,7.29655 7.70124,7.33729 0.78604,0.0408 4.35146,-2.06748 7.92315,-4.68494 l 6.49396,-4.75903 10.42075,6.30021 c 9.38928,5.67657 22.43394,10.56643 35.08421,13.15143 4.0697,0.83162 4.59091,1.63632 4.59091,7.08747 v 6.14935 h 12.52068 12.52064 z"
     id="path2226"
     inkscape:connector-curvature="0" />
  <path
     style="fill:#e9d9a8;fill-opacity:1;stroke:none;stroke-width:1.60584724"
     d="M 34.166062,256.85924 V 35.967996 H 288.75292 543.33976 V 256.85924 477.75048 H 288.75292 34.166062 Z M 502.86286,255.70068 502.43892,66.089517 288.33558,65.697494 74.232213,65.305494 v 50.208386 50.20841 H 60.042108 45.852028 v 13.90224 13.90226 h 14.19008 14.190105 v 61.0154 61.01541 H 59.207408 44.182615 v 14.6746 14.6746 h 15.024793 15.024805 v 50.20254 50.20253 H 288.75951 503.28684 Z"
     id="path2230"
     inkscape:connector-curvature="0" />
  <path
     style="fill:#e9d9a8;fill-opacity:1;stroke:none;stroke-width:1.60584724"
     d="m 117.63716,510.18905 v -23.17042 h 28.38016 28.38019 v 23.17042 23.17039 h -28.38019 -28.38016 z"
     id="path2238"
     inkscape:connector-curvature="0" />
  <path
     style="fill:#e9d9a8;fill-opacity:1;stroke:none;stroke-width:1.60584724"
     d="m 401.4389,510.18905 v -23.17042 h 28.38017 28.38017 v 23.17042 23.17039 H 429.81907 401.4389 Z"
     id="path2240"
     inkscape:connector-curvature="0" />
  <path
     style="fill:#e9d9a8;fill-opacity:1;stroke:none;stroke-width:1.38250077"
     d="m 103.62293,381.81623 v -37.23587 h 17.29541 17.29543 l -0.40793,-14.29592 -0.40795,-14.29591 -16.88746,-0.37469 -16.8875,-0.37462 v -61.13104 -61.13102 h 15.80955 15.80957 V 179.67862 166.38011 H 119.43248 103.62293 V 129.80915 93.238206 H 287.58877 471.55461 V 256.14516 419.0521 H 287.58877 103.62293 Z m 215.58494,15.31865 c 0,-8.33574 0.12987,-8.64306 3.95242,-9.36085 25.08457,-4.71006 43.36514,-11.80428 61.25465,-23.77142 12.68816,-8.48771 10.82536,-8.61015 23.66971,1.55558 l 7.18238,5.68453 10.53766,-11.42885 c 5.79576,-6.28587 10.72065,-11.89527 10.94435,-12.46534 0.22372,-0.57008 -3.75582,-4.41796 -8.8433,-8.55085 l -9.25012,-7.51435 6.15145,-9.98794 c 7.66646,-12.44768 14.39145,-30.98059 16.76436,-46.19982 l 1.81434,-11.63622 h 7.65745 7.65736 l -0.39981,-18.28547 -0.39995,-18.28549 -8.83341,-0.39234 -8.83351,-0.39232 -3.89355,-11.55503 c -4.33988,-12.87925 -10.73674,-25.30917 -18.52761,-36.00111 -2.85162,-3.91345 -5.18475,-7.51583 -5.18475,-8.00532 0,-0.48951 3.23378,-3.26012 7.18623,-6.15694 3.95233,-2.89682 7.18612,-5.89754 7.18612,-6.66822 0,-0.7707 -4.15645,-6.02711 -9.23669,-11.68094 l -9.23656,-10.27971 -9.12204,7.16065 -9.12218,7.16062 -12.38665,-7.56243 c -14.30971,-8.73643 -29.9705,-14.79951 -46.83114,-18.13067 L 319.20787,122.042 v -9.7474 -9.74743 H 301.96109 284.7143 v 9.857 9.85702 l -6.10824,0.93247 c -18.09646,2.76257 -43.47062,12.84681 -57.95014,23.03057 l -7.2877,5.12559 -3.67942,-2.79122 c -2.02368,-1.53516 -6.91286,-5.33027 -10.86489,-8.43355 l -7.18545,-5.64234 -10.95141,11.84819 c -6.02328,6.5165 -10.9514,12.14417 -10.9514,12.50592 0,0.36176 4.42213,4.18816 9.82695,8.50308 l 9.82694,7.84532 -3.46105,4.57396 c -8.5982,11.36294 -18.85972,33.89364 -21.31335,46.79676 l -0.94831,4.98694 h -11.33792 -11.33792 v 17.22982 17.22983 l 10.41824,0.39074 10.41821,0.39072 1.05761,7.86641 c 2.42697,18.05139 11.83465,41.03879 22.99847,56.19597 l 5.06641,6.87874 -9.16991,6.88408 c -5.04347,3.78625 -9.16992,7.36897 -9.16992,7.96155 0,0.8013 13.52938,16.59837 18.09862,21.13216 0.29417,0.29189 5.32789,-3.13774 11.18606,-7.62139 8.96714,-6.86318 10.92335,-7.8487 12.37247,-6.23304 3.10976,3.46705 23.53551,14.90047 33.7976,18.91842 8.90526,3.48668 20.5289,6.68546 32.69705,8.99809 3.82162,0.72635 3.9524,1.03635 3.9524,9.3699 v 8.6187 h 17.24679 17.24678 z"
     id="path861"
     inkscape:connector-curvature="0" />
  <text
     xml:space="preserve"
     style="font-style:normal;font-variant:normal;font-weight:normal;font-stretch:normal;font-size:338.88964844px;line-height:1.25;font-family:'Segoe UI Symbol';-inkscape-font-specification:'Segoe UI Symbol';letter-spacing:0px;word-spacing:0px;fill:#000000;fill-opacity:1;stroke:#000000;stroke-width:10.50034142;stroke-miterlimit:4;stroke-dasharray:none;stroke-opacity:1"
     x="132.26523"
     y="457.17148"
     id="text5696-6"
     transform="scale(1.3436891,0.74421977)"><tspan
       sodipodi:role="line"
       id="tspan5694-9"
       x="132.26523"
       y="457.17148"
       style="fill:#000000;fill-opacity:1;stroke:#000000;stroke-width:10.50034142;stroke-miterlimit:4;stroke-dasharray:none;stroke-opacity:1">$</tspan></text>
  <path
     style="fill:none;stroke:none;stroke-width:1.38250077"
     d="m 285.38384,398.12992 c 0,-4.65956 -0.73061,-8.37734 -1.80908,-9.20551 -0.99501,-0.76408 -6.06615,-2.30272 -11.26925,-3.41927 -18.3992,-3.94825 -32.00584,-9.62289 -50.44038,-21.03611 -4.50188,-2.78722 -8.93747,-5.06766 -9.85684,-5.06766 -0.91939,0 -5.73556,2.99217 -10.7026,6.64926 -4.96704,3.65709 -9.58602,6.62799 -10.26443,6.60198 -1.26241,-0.0485 -16.61051,-17.37013 -17.44603,-19.6895 -0.25442,-0.70617 3.28935,-4.10088 7.87503,-7.54379 4.58566,-3.44293 8.52098,-6.70281 8.74514,-7.24418 0.22418,-0.5414 -2.48159,-5.32031 -6.01279,-10.61986 -10.89592,-16.35228 -16.06873,-30.13692 -21.85929,-58.25143 -0.56905,-2.76279 -1.38545,-2.99217 -10.64956,-2.99217 h -10.03324 v -17.2881 -17.28808 h 11.49787 c 10.72653,0 11.49787,-0.18756 11.49787,-2.79601 0,-7.48016 14.10508,-39.2764 22.02049,-49.6395 l 2.97574,-3.8959 -9.88389,-8.28933 -9.88389,-8.28936 10.3929,-11.41965 c 5.71608,-6.28078 10.88723,-11.41962 11.4914,-11.41962 0.60419,0 5.61292,3.51607 11.13051,7.8135 l 10.03196,7.8135 12.16399,-7.5451 c 13.60236,-8.43735 32.48728,-15.93711 49.17826,-19.53013 l 11.11011,-2.39165 v -9.70322 -9.70323 h 16.52819 16.52818 v 9.76227 9.76228 l 8.26407,1.62983 c 19.93247,3.93102 39.0517,11.40869 55.37714,21.65837 l 8.30775,5.21593 9.10329,-7.39512 9.10326,-7.39512 8.81848,10.29111 c 4.85016,5.66008 8.81847,10.67234 8.81847,11.13829 0,0.46599 -2.91041,3.32951 -6.46756,6.3634 -3.55713,3.03389 -6.46755,6.17359 -6.46755,6.97713 0,0.80353 2.21181,4.83064 4.91513,8.94911 7.44315,11.33959 14.43134,25.45675 18.14473,36.65514 l 3.33716,10.06368 5.84483,0.0181 c 12.74188,0.0396 12.31237,-0.63538 12.31237,19.35033 v 17.72842 l -7.45404,0.40195 -7.45407,0.40196 -1.89761,10.63882 c -2.87071,16.09415 -7.00687,27.84146 -15.12586,42.95973 l -7.35892,13.70297 9.20061,7.70951 9.20065,7.70951 -10.46729,11.50138 c -5.75699,6.32577 -10.80183,11.50138 -11.21079,11.50138 -0.40895,0 -4.31635,-2.69295 -8.68312,-5.98435 -4.36679,-3.29138 -9.20303,-5.98434 -10.74721,-5.98434 -1.54422,0 -7.68998,3.04843 -13.65727,6.77426 -14.44738,9.02063 -28.51022,15.00653 -45.07263,19.1854 -7.50957,1.89474 -14.62384,3.92275 -15.80958,4.5067 -1.47551,0.72667 -2.29086,3.64103 -2.58372,9.23505 l -0.42791,8.17329 h -16.4596 -16.45958 z m 37.67708,-41.63432 0.40959,-13.54454 10.44172,-1.62534 c 42.14384,-6.55996 68.04766,-23.93309 68.27014,-45.78735 0.20682,-20.31646 -18.85497,-34.91666 -63.26161,-48.45463 l -16.16888,-4.92931 V 213.50071 184.847 l 10.24018,0.93366 c 13.5436,1.23483 29.45118,5.08214 38.44017,9.29686 11.81795,5.54121 11.68344,5.68284 11.68344,-12.3037 v -15.71538 l -7.54546,-2.17918 c -9.23427,-2.6669 -21.9731,-4.50891 -39.52393,-5.71507 l -13.2944,-0.91365 V 147.78326 137.31597 H 303.34924 283.9466 l -0.005,10.97129 -0.005,10.97128 -13.0967,2.35285 c -23.91275,4.29585 -47.6873,15.76483 -56.45547,27.23405 -5.96076,7.79698 -7.81587,12.86641 -7.90887,21.61241 -0.13215,12.43245 7.34001,23.55785 21.44857,31.9349 7.50894,4.45845 31.83944,13.70851 47.03838,17.8832 l 8.98271,2.46727 v 27.71637 27.71634 l -3.95238,-0.006 c -14.86801,-0.0202 -46.36733,-7.26882 -60.78924,-13.98893 -5.45751,-2.54303 -10.60553,-4.62369 -11.44007,-4.62369 -1.00434,0 -1.38094,5.50519 -1.1138,16.28268 l 0.40352,16.28268 8.88236,2.92719 c 12.76876,4.20799 28.14184,6.89901 49.41197,8.64938 l 18.59764,1.53046 v 12.40491 12.40491 h 19.35237 19.35239 z"
     id="path923"
     inkscape:connector-curvature="0" />
  <path
     style="fill:#e9d9a8;stroke:#e9d9a8;stroke-width:1.36157334;stroke-opacity:1;fill-opacity:1"
     d="m 285.67805,398.58743 c -0.0111,-3.78182 -0.58046,-7.69244 -1.26339,-8.69022 -0.68294,-0.99782 -7.2021,-3.24164 -14.48697,-4.98629 -15.27836,-3.65899 -34.53332,-11.79277 -48.30231,-20.4041 l -9.57845,-5.99054 -10.13135,7.10206 c -5.57222,3.90614 -10.55711,7.10206 -11.07751,7.10206 -1.41136,0 -16.96189,-18.49787 -16.95577,-20.16944 0.004,-0.79255 3.82469,-4.29718 8.49286,-7.7881 4.66818,-3.4909 8.48757,-6.67148 8.48757,-7.0679 0,-0.39644 -2.28777,-3.90993 -5.08391,-7.80778 -10.48628,-14.61792 -20.24254,-38.74662 -22.5367,-55.73666 -0.95826,-7.09662 -1.23273,-7.51762 -4.90089,-7.51762 -2.1372,0 -6.84102,-0.37481 -10.45299,-0.83287 l -6.56722,-0.8329 v -16.84837 -16.84838 h 11.29686 c 11.18553,0 11.30478,-0.0357 12.09984,-3.60172 3.02851,-13.58407 13.09166,-35.9182 21.44849,-47.60275 l 3.51954,-4.92104 -5.65658,-4.72857 c -3.11112,-2.6007 -7.30505,-5.92837 -9.31985,-7.3948 -2.01478,-1.46643 -3.66325,-3.2882 -3.66325,-4.04837 0,-1.54592 19.45747,-23.31248 20.8394,-23.31248 0.48448,0 4.43359,2.80477 8.7758,6.23282 4.34222,3.42803 8.95534,6.99474 10.25136,7.92604 2.01937,1.45105 3.74039,0.81102 12.03157,-4.47444 13.9011,-8.86169 31.21582,-16.02172 48.08405,-19.88388 l 14.67147,-3.35918 v -9.59221 -9.59219 h 16.27799 16.27798 v 9.73006 9.73004 l 8.139,1.55508 c 20.16872,3.85354 37.64614,10.52475 55.03293,21.00637 l 8.95858,5.40064 8.64607,-6.68471 c 4.75533,-3.6766 9.06808,-6.66376 9.58389,-6.63813 1.41096,0.0701 16.44291,17.876 16.93966,20.06565 0.23736,1.04636 -2.46972,4.14648 -6.01579,6.88914 -3.54604,2.74266 -6.44735,5.77423 -6.44735,6.73683 0,0.96257 2.20791,4.94379 4.90647,8.84711 7.59426,10.98478 12.14528,19.84235 17.11571,33.31194 4.93214,13.36582 5.86881,14.22688 15.64469,14.38155 l 5.8186,0.092 0.8926,6.87605 c 0.49095,3.78182 0.89814,11.73837 0.90491,17.68124 l 0.0111,10.80523 h -7.52864 -7.52863 l -2.44047,12.74445 c -3.14211,16.40827 -9.46283,33.82039 -16.74322,46.12353 l -5.77156,9.7534 8.92325,7.38492 c 5.61968,4.65085 8.62573,8.07081 8.11957,9.23756 -0.91146,2.10114 -19.34936,22.15336 -20.36987,22.15336 -0.36533,0 -4.49121,-2.94687 -9.1686,-6.5486 -4.67737,-3.60175 -9.00609,-6.54862 -9.61935,-6.54862 -0.61327,0 -7.36674,3.81386 -15.00771,8.47521 -15.94113,9.72489 -29.85157,15.4363 -47.84768,19.64554 -6.93974,1.62317 -13.17757,3.76925 -13.86185,4.76907 -0.68429,0.99979 -1.2539,4.91204 -1.26583,8.69387 l -0.0216,6.87604 H 301.97658 285.6986 l -0.0216,-6.87604 z m 36.82407,-42.06983 v -13.58333 l 7.43127,-0.89611 c 42.50969,-5.12605 71.98314,-24.10687 72.21115,-46.50382 0.20546,-20.18341 -19.31907,-35.15097 -62.77237,-48.12142 l -16.784,-5.00988 -0.0431,-28.48647 -0.0431,-28.48646 6.01578,0.0173 c 9.91878,0.0284 31.75495,4.78117 41.64886,9.06518 5.09975,2.20815 9.83773,4.01485 10.52884,4.01485 0.6911,0 1.25657,-7.08709 1.25657,-15.74908 v -15.7491 l -3.89257,-1.39284 c -8.08527,-2.89306 -22.8567,-5.15637 -38.92564,-5.96433 l -16.63184,-0.83623 v -10.93271 -10.93268 h -19.10904 -19.10894 v 11.1077 c 0,10.47767 -0.18065,11.13989 -3.18483,11.67551 -15.78902,2.81506 -21.68329,4.21942 -31.49436,7.50382 -19.92937,6.67171 -36.64682,19.2701 -41.19022,31.04128 -2.98091,7.72298 -2.42181,18.29634 1.36252,25.76824 7.00636,13.83353 22.22406,22.86554 56.58421,33.58395 l 17.92268,5.59086 v 27.23516 27.23518 l -6.01579,-9.3e-4 c -15.6035,-0.006 -42.9185,-6.22817 -57.87315,-13.18544 -6.0877,-2.83215 -11.71963,-5.14936 -12.51541,-5.14936 -0.90795,0 -1.4469,6.06331 -1.4469,16.27744 v 16.27741 l 7.43125,2.57194 c 10.85424,3.7566 32.69161,7.87513 46.42205,8.7552 6.58152,0.42183 14.67348,1.07114 17.98216,1.44288 l 6.01579,0.67592 v 12.36211 12.36211 h 19.10894 19.10894 z"
     id="path1514"
     inkscape:connector-curvature="0" />
  <path
     style="fill:#e9d9a8;stroke:none;stroke-width:1.36157334;fill-opacity:1"
     d="m 322.50212,295.34121 c 0,-11.46749 0.38857,-20.84997 0.86348,-20.84997 2.86031,0 18.31362,8.98503 21.83402,12.695 10.02611,10.56595 2.45654,22.60371 -17.38945,27.65416 l -5.30805,1.35079 z"
     id="path1516"
     inkscape:connector-curvature="0" />
  <path
     style="fill:#e9d9a8;stroke:none;stroke-width:1.36157334;fill-opacity:1"
     d="m 277.26952,227.89476 c -15.94854,-6.40153 -22.61525,-18.46864 -15.86321,-28.7132 2.43487,-3.69431 12.58178,-9.73662 19.6931,-11.72689 l 3.18483,-0.89136 v 21.69868 c 0,11.93429 -0.47771,21.6756 -1.0616,21.6474 -0.58389,-0.0282 -3.26279,-0.93479 -5.95312,-2.01463 z"
     id="path1518"
     inkscape:connector-curvature="0" />
</svg>
