<?xml version="1.0" encoding="UTF-8" standalone="no"?>
<!-- Created with Inkscape (http://www.inkscape.org/) -->

<svg
   xmlns:osb="http://www.openswatchbook.org/uri/2009/osb"
   xmlns:dc="http://purl.org/dc/elements/1.1/"
   xmlns:cc="http://creativecommons.org/ns#"
   xmlns:rdf="http://www.w3.org/1999/02/22-rdf-syntax-ns#"
   xmlns:svg="http://www.w3.org/2000/svg"
   xmlns="http://www.w3.org/2000/svg"
   xmlns:sodipodi="http://sodipodi.sourceforge.net/DTD/sodipodi-0.dtd"
   xmlns:inkscape="http://www.inkscape.org/namespaces/inkscape"
   version="1.1"
   id="svg2966"
   width="563.52197"
   height="563.52197"
   viewBox="0 0 563.52197 563.52197"
   sodipodi:docname="safeSymbolTransparent2.svg"
   inkscape:version="0.92.4 (5da689c313, 2019-01-14)">
  <metadata
     id="metadata2972">
    <rdf:RDF>
      <cc:Work
         rdf:about="">
        <dc:format>image/svg+xml</dc:format>
        <dc:type
           rdf:resource="http://purl.org/dc/dcmitype/StillImage" />
        <dc:title></dc:title>
      </cc:Work>
    </rdf:RDF>
  </metadata>
  <defs
     id="defs2970">
    <linearGradient
       id="linearGradient2071"
       osb:paint="solid">
      <stop
         style="stop-color:#000000;stop-opacity:1;"
         offset="0"
         id="stop2069" />
    </linearGradient>
  </defs>
  <sodipodi:namedview
     pagecolor="#ffffff"
     bordercolor="#666666"
     borderopacity="1"
     objecttolerance="10"
     gridtolerance="10"
     guidetolerance="10"
     inkscape:pageopacity="0"
     inkscape:pageshadow="2"
     inkscape:window-width="1920"
     inkscape:window-height="1017"
     id="namedview2968"
     showgrid="false"
     inkscape:zoom="0.49687501"
     inkscape:cx="501.14618"
     inkscape:cy="28.860121"
     inkscape:window-x="-8"
     inkscape:window-y="-8"
     inkscape:window-maximized="1"
     inkscape:current-layer="svg2966"
     fit-margin-top="0"
     fit-margin-left="0"
     fit-margin-right="0"
     fit-margin-bottom="0"
     inkscape:pagecheckerboard="true" />
  <text
     xml:space="preserve"
     style="font-style:normal;font-variant:normal;font-weight:normal;font-stretch:normal;font-size:192px;line-height:1.25;font-family:'Microsoft YaHei UI';-inkscape-font-specification:'Microsoft YaHei UI';letter-spacing:0px;word-spacing:0px;fill:#000000;fill-opacity:1;stroke:none"
     x="-474.96826"
     y="136.85522"
     id="text2978"><tspan
       sodipodi:role="line"
       id="tspan2976"
       x="-474.96826"
       y="307.18701" /></text>
  <text
     xml:space="preserve"
     style="font-style:normal;font-variant:normal;font-weight:normal;font-stretch:normal;font-size:192px;line-height:1.25;font-family:'Segoe UI Symbol';-inkscape-font-specification:'Segoe UI Symbol';letter-spacing:0px;word-spacing:0px;fill:#000000;fill-opacity:1;stroke:none"
     x="-56.352051"
     y="418.61621"
     id="text2996"><tspan
       sodipodi:role="line"
       id="tspan2994"
       x="-56.352051"
       y="591.56104" /></text>
  <rect
     style="fill:none;fill-rule:evenodd;stroke:#000000;stroke-width:8.21341801;stroke-miterlimit:4;stroke-dasharray:none;stroke-opacity:1"
     id="rect5656"
     width="513.33875"
     height="481.4975"
     x="26.612926"
     y="13.795413" />
  <ellipse
     style="opacity:1;fill:none;fill-opacity:1;stroke:#000000;stroke-width:5.25751543;stroke-linejoin:round;stroke-miterlimit:4;stroke-dasharray:none;stroke-opacity:1"
     id="path5670"
     cx="282.0126"
     cy="282.51569"
     r="279.87125" />
  <rect
     style="fill:none;fill-rule:evenodd;stroke:#000000;stroke-width:8.56810379;stroke-miterlimit:4;stroke-dasharray:none;stroke-opacity:1"
     id="rect5678"
     width="66.120598"
     height="59.362514"
     x="107.85872"
     y="496.43573" />
  <rect
     style="fill:none;fill-rule:evenodd;stroke:#000000;stroke-width:8.61870289;stroke-miterlimit:4;stroke-dasharray:none;stroke-opacity:1"
     id="rect5680"
     width="66.120598"
     height="60.065727"
     x="388.87125"
     y="495.73251" />
  <ellipse
     style="opacity:1;fill:#000000;fill-opacity:0;stroke:#000000;stroke-width:6.98258734;stroke-linejoin:round;stroke-miterlimit:4;stroke-dasharray:none;stroke-opacity:1"
     id="path5692"
     cx="341.34"
     cy="254.26756"
     ry="95.972237"
     rx="93.42704" />
  <ellipse
     style="opacity:1;fill:#000000;fill-opacity:0;stroke:#000000;stroke-width:5.53069544;stroke-linejoin:round;stroke-miterlimit:4;stroke-dasharray:none;stroke-opacity:1"
     id="path5698"
     cx="340.6546"
     cy="254.97421"
     rx="76.221687"
     ry="78.408417" />
  <rect
     style="fill:none;fill-rule:evenodd;stroke:#000000;stroke-width:8.19669819;stroke-miterlimit:4;stroke-dasharray:none;stroke-opacity:1"
     id="rect5704"
     width="414.92343"
     height="396.74033"
     x="74.790062"
     y="54.926365" />
  <rect
     style="fill:#598d80;fill-opacity:1;fill-rule:evenodd;stroke-width:1.64268363"
     id="rect5716"
     width="34.71331"
     height="16.530149"
     x="63.227325"
     y="164.03372" />
  <rect
     style="fill:#598d80;fill-opacity:1;fill-rule:evenodd;stroke-width:1.64268363"
     id="rect5718"
     width="26.448236"
     height="16.530149"
     x="64.880341"
     y="324.37616" />
  <rect
     style="fill:none;fill-rule:evenodd;stroke:#000000;stroke-width:8.16061878;stroke-miterlimit:4;stroke-dasharray:none;stroke-opacity:1"
     id="rect5722"
     width="373.63416"
     height="358.75702"
     x="94.608223"
     y="74.74453" />
  <rect
     style="fill:#598d80;fill-opacity:1;fill-rule:evenodd;stroke-width:1.64268363"
     id="rect5729"
     width="34.713322"
     height="16.530155"
     x="63.227325"
     y="164.03372" />
  <rect
     style="fill:#598d80;fill-opacity:1;fill-rule:evenodd;stroke-width:1.64268363"
     id="rect5737"
     width="44.631393"
     height="18.183184"
     x="64.880341"
     y="322.72318" />
  <rect
     style="fill:#598d80;fill-opacity:1;fill-rule:evenodd;stroke-width:1.64268363"
     id="rect5741"
     width="52.896469"
     height="16.530138"
     x="63.227325"
     y="164.03372" />
  <rect
     style="fill:none;fill-rule:evenodd;stroke:#000000;stroke-width:7.9552846;stroke-miterlimit:4;stroke-dasharray:none;stroke-opacity:1"
     id="rect5743"
     width="79.602844"
     height="20.094313"
     x="46.568115"
     y="162.25163" />
  <rect
     style="fill:none;fill-rule:evenodd;stroke:#000000;stroke-width:8.78014278;stroke-miterlimit:4;stroke-dasharray:none;stroke-opacity:1"
     id="rect5747"
     width="82.084015"
     height="20.922468"
     x="45.327538"
     y="323.0065" />
  <rect
     style="fill:#000000;fill-rule:evenodd;stroke-width:1.64268363"
     id="rect835"
     width="23.142208"
     height="14.877133"
     x="329.36273"
     y="140.89149" />
  <rect
     style="fill:#000000;fill-rule:evenodd;stroke-width:1.84739673"
     id="rect837"
     width="22.99757"
     height="14.877133"
     x="329.36273"
     y="350.8244" />
  <rect
     style="fill:#000000;fill-rule:evenodd;stroke-width:1.73154044"
     id="rect839"
     width="16.530149"
     height="24.795223"
     x="230.18182"
     y="236.76637" />
  <rect
     style="fill:#000000;fill-rule:evenodd;stroke-width:1.75610268"
     id="rect841"
     width="13.224119"
     height="26.448236"
     x="435.15567"
     y="233.46037" />
  <rect
     style="fill:#000000;fill-rule:evenodd;stroke-width:1.64268363"
     id="rect843"
     width="21.489193"
     height="23.142208"
     x="308.58292"
     y="-46.802448"
     transform="rotate(40.49296)" />
  <rect
     style="fill:#000000;fill-rule:evenodd;stroke-width:1.34164953"
     id="rect845"
     width="20.248835"
     height="21.604046"
     x="392.4574"
     y="-212.67915"
     transform="matrix(0.63957659,0.76872738,-0.76956744,0.63856555,0,0)" />
  <rect
     style="fill:#000000;fill-rule:evenodd;stroke-width:1.64268363"
     id="rect843-7"
     width="21.489193"
     height="23.142208"
     x="518.24933"
     y="-36.724072"
     transform="rotate(40.49296)" />
  <rect
     style="fill:#000000;fill-rule:evenodd;stroke-width:1.34164953"
     id="rect845-9"
     width="20.248835"
     height="21.604046"
     x="412.258"
     y="-6.1270356"
     transform="matrix(0.63957659,0.76872738,-0.76956744,0.63856555,0,0)" />
  <rect
     style="fill:#000000;fill-opacity:0;fill-rule:evenodd;stroke-width:1.85298026"
     id="rect976"
     width="70.881531"
     height="43.67485"
     x="103.09777"
     y="512.12335" />
  <rect
     style="fill:#000000;fill-opacity:1;fill-rule:evenodd;stroke-width:1.64268363"
     id="rect1639"
     width="79.602852"
     height="20.094324"
     x="46.568115"
     y="162.25163" />
  <rect
     style="fill:#000000;fill-opacity:1;fill-rule:evenodd;stroke-width:1.64268363"
     id="rect1641"
     width="82.084023"
     height="20.922459"
     x="45.327538"
     y="323.0065" />
  <path
     style="fill:#ffecb3;fill-opacity:0;stroke:none;stroke-width:1.65301478"
     d="m 98.639681,388.5307 v -39.67236 h 17.418689 17.41869 l -0.47528,-15.29039 -0.4753,-15.29038 -16.94339,-0.47108 -16.943409,-0.4711 v -65.23624 -65.23627 h 16.594499 16.5945 l -0.47761,-14.46388 -0.47761,-14.46387 -16.11689,-0.47311 -16.116889,-0.47313 V 118.20291 79.416925 H 281.29783 463.95597 V 253.80999 428.20307 H 281.29783 98.639681 Z M 353.20398,360.63041 v -6.41109 l 10.92584,-2.7445 c 12.10178,-3.03986 24.32147,-8.74489 34.85173,-16.27128 l 6.93175,-4.95439 6.82443,5.40504 6.82443,5.40507 7.2457,-8.08481 c 3.98513,-4.44665 7.27903,-8.96049 7.31978,-10.03075 0.0406,-1.07025 -2.58679,-4.13922 -5.83895,-6.81993 l -5.91304,-4.87401 4.94533,-9.79662 c 4.95805,-9.82184 9.01531,-22.41846 10.953,-34.00578 0.92483,-5.53054 1.56313,-6.1988 5.92071,-6.1988 h 4.88414 V 247.19793 233.1473 l -6.19878,-0.0148 -6.19882,-0.0148 -3.65933,-11.96889 c -2.01264,-6.58289 -6.34987,-16.03024 -9.63829,-20.99413 l -5.97897,-9.02524 5.10741,-4.19888 c 2.80907,-2.30938 5.07848,-4.94272 5.04316,-5.85188 -0.0353,-0.90916 -2.91588,-4.95228 -6.40128,-8.98469 l -6.33707,-7.33169 -6.3356,5.22235 -6.33561,5.22236 -5.04791,-3.37358 c -9.50826,-6.35437 -24.88475,-13.09 -34.38892,-15.06383 l -9.50484,-1.97398 v -7.10783 -7.10785 h -12.39762 -12.39761 v 7.0627 7.0627 l -9.37767,2.18022 c -9.99554,2.32388 -25.21214,9.12847 -33.31377,14.89733 -5.87752,4.18519 -7.46484,4.33258 -10.26907,0.95368 -1.16704,-1.40619 -4.10659,-3.96995 -6.5324,-5.69727 l -4.41053,-3.14058 -7.8127,9.29219 -7.81268,9.2922 6.66325,5.9099 6.66325,5.90992 -7.28718,14.66966 c -4.00794,8.06832 -7.77423,17.55249 -8.3695,21.07594 l -1.08232,6.40628 h -8.11979 -8.11978 v 13.22411 13.22413 h 7.29327 7.29328 l 1.17059,7.02531 c 2.08258,12.49848 7.13153,26.63988 12.97518,36.34172 l 5.71016,9.48022 -6.48826,5.3969 -6.48827,5.3969 6.21044,7.77256 c 3.41572,4.27491 6.84722,7.80822 7.62556,7.85182 0.77831,0.0437 4.30868,-2.21247 7.84526,-5.01347 l 6.43014,-5.09276 10.31836,6.74201 c 9.29697,6.07465 22.21345,11.30739 34.73939,14.07368 4.02968,0.88992 4.54579,1.75106 4.54579,7.58447 v 6.58057 h 12.39761 12.39762 z"
     id="path2224"
     inkscape:connector-curvature="0" />
  <path
     style="fill:#ffc107;fill-opacity:0;stroke:none;stroke-width:1.65301478"
     d="m 98.639681,388.5307 v -39.67236 h 17.418689 17.41869 l -0.47528,-15.29039 -0.4753,-15.29038 -16.94339,-0.47108 -16.943409,-0.4711 v -65.23624 -65.23627 h 16.594499 16.5945 l -0.47761,-14.46388 -0.47761,-14.46387 -16.11689,-0.47311 -16.116889,-0.47313 V 118.20291 79.416925 H 281.29783 463.95597 V 253.80999 428.20307 H 281.29783 98.639681 Z M 353.20398,360.63041 v -6.41109 l 10.92584,-2.7445 c 12.10178,-3.03986 24.32147,-8.74489 34.85173,-16.27128 l 6.93175,-4.95439 6.82443,5.40504 6.82443,5.40507 7.2457,-8.08481 c 3.98513,-4.44665 7.27903,-8.96049 7.31978,-10.03075 0.0406,-1.07025 -2.58679,-4.13922 -5.83895,-6.81993 l -5.91304,-4.87401 4.94533,-9.79662 c 4.95805,-9.82184 9.01531,-22.41846 10.953,-34.00578 0.92483,-5.53054 1.56313,-6.1988 5.92071,-6.1988 h 4.88414 V 247.19793 233.1473 l -6.19878,-0.0148 -6.19882,-0.0148 -3.65933,-11.96889 c -2.01264,-6.58289 -6.34987,-16.03024 -9.63829,-20.99413 l -5.97897,-9.02524 5.10741,-4.19888 c 2.80907,-2.30938 5.07848,-4.94272 5.04316,-5.85188 -0.0353,-0.90916 -2.91588,-4.95228 -6.40128,-8.98469 l -6.33707,-7.33169 -6.3356,5.22235 -6.33561,5.22236 -5.04791,-3.37358 c -9.50826,-6.35437 -24.88475,-13.09 -34.38892,-15.06383 l -9.50484,-1.97398 v -7.10783 -7.10785 h -12.39762 -12.39761 v 7.0627 7.0627 l -9.37767,2.18022 c -9.99554,2.32388 -25.21214,9.12847 -33.31377,14.89733 -5.87752,4.18519 -7.46484,4.33258 -10.26907,0.95368 -1.16704,-1.40619 -4.10659,-3.96995 -6.5324,-5.69727 l -4.41053,-3.14058 -7.8127,9.29219 -7.81268,9.2922 6.66325,5.9099 6.66325,5.90992 -7.28718,14.66966 c -4.00794,8.06832 -7.77423,17.55249 -8.3695,21.07594 l -1.08232,6.40628 h -8.11979 -8.11978 v 13.22411 13.22413 h 7.29327 7.29328 l 1.17059,7.02531 c 2.08258,12.49848 7.13153,26.63988 12.97518,36.34172 l 5.71016,9.48022 -6.48826,5.3969 -6.48827,5.3969 6.21044,7.77256 c 3.41572,4.27491 6.84722,7.80822 7.62556,7.85182 0.77831,0.0437 4.30868,-2.21247 7.84526,-5.01347 l 6.43014,-5.09276 10.31836,6.74201 c 9.29697,6.07465 22.21345,11.30739 34.73939,14.07368 4.02968,0.88992 4.54579,1.75106 4.54579,7.58447 v 6.58057 h 12.39761 12.39762 z"
     id="path2226"
     inkscape:connector-curvature="0" />
  <path
     style="fill:#e9d9a8;fill-opacity:1;stroke:none;stroke-width:1.65301478"
     d="m 98.63968,388.5307 v -39.67236 h 17.41869 17.41869 l -0.47528,-15.29039 -0.4753,-15.29038 -16.94339,-0.47108 -16.94341,-0.4711 v -65.23624 -65.23627 h 16.5945 16.5945 l -0.47761,-14.46388 -0.47761,-14.46387 -16.11689,-0.47311 -16.11689,-0.47313 V 118.20291 79.41693 H 281.29783 463.95596 V 253.80999 428.20307 H 281.29783 98.63968 Z m 254.5643,-27.90029 v -6.41109 l 10.92584,-2.7445 c 12.10178,-3.03986 24.32144,-8.74489 34.85174,-16.27128 l 6.9317,-4.95439 6.8245,5.40504 6.8244,5.40507 7.2457,-8.08481 c 3.9851,-4.44665 7.279,-8.96049 7.3198,-10.03075 0.041,-1.07025 -2.5868,-4.13922 -5.839,-6.81993 l -5.913,-4.87401 4.9453,-9.79662 c 4.9581,-9.82184 9.0153,-22.41846 10.953,-34.00578 0.9249,-5.53054 1.5632,-6.1988 5.9207,-6.1988 h 4.8842 V 247.19793 233.1473 l -6.1988,-0.0148 -6.1988,-0.0148 -3.6594,-11.96889 c -2.0126,-6.58289 -6.3498,-16.03024 -9.6382,-20.99413 l -5.979,-9.02524 5.1074,-4.19888 c 2.8091,-2.30938 5.0785,-4.94272 5.0432,-5.85188 -0.035,-0.90916 -2.9159,-4.95228 -6.4013,-8.98469 l -6.3371,-7.33169 -6.3356,5.22235 -6.3356,5.22236 -5.0479,-3.37358 c -9.5083,-6.35437 -24.88477,-13.09 -34.38894,-15.06383 l -9.50484,-1.97398 v -7.10783 -7.10785 h -12.39762 -12.39761 v 7.0627 7.0627 l -9.37767,2.18022 c -9.99554,2.32388 -25.21214,9.12847 -33.31377,14.89733 -5.87752,4.18519 -7.46484,4.33258 -10.26907,0.95368 -1.16704,-1.40619 -4.10659,-3.96995 -6.5324,-5.69727 l -4.41053,-3.14058 -7.8127,9.29219 -7.81268,9.2922 6.66325,5.9099 6.66325,5.90992 -7.28718,14.66966 c -4.00794,8.06832 -7.77423,17.55249 -8.3695,21.07594 l -1.08232,6.40628 h -8.11979 -8.11978 v 13.22411 13.22413 h 7.29327 7.29328 l 1.17059,7.02531 c 2.08258,12.49848 7.13153,26.63988 12.97518,36.34172 l 5.71016,9.48022 -6.48826,5.3969 -6.48827,5.3969 6.21044,7.77256 c 3.41572,4.27491 6.84722,7.80822 7.62556,7.85182 0.77831,0.0437 4.30868,-2.21247 7.84526,-5.01347 l 6.43014,-5.09276 10.31836,6.74201 c 9.29697,6.07465 22.21345,11.30739 34.73939,14.07368 4.02968,0.88992 4.54579,1.75106 4.54579,7.58447 v 6.58057 h 12.39761 12.39762 z"
     id="path2228"
     inkscape:connector-curvature="0" />
  <path
     style="fill:#e9d9a8;fill-opacity:1;stroke:none;stroke-width:1.65301478"
     d="M 30.866067,254.63649 V 18.255364 H 282.95085 535.03561 V 254.63649 491.01762 H 282.95085 30.866067 Z M 494.95652,253.39672 494.53675,50.489151 282.5376,50.069644 70.538437,49.650138 v 53.729232 53.72924 H 56.487814 42.437179 v 14.87714 14.87713 h 14.050635 14.050623 v 65.2941 65.29408 H 55.661298 40.784173 v 15.70364 15.70364 h 14.877125 14.877139 v 53.72298 53.72298 H 282.95737 495.37632 Z"
     id="path2230"
     inkscape:connector-curvature="0" />
  <path
     style="fill:#e9d9a8;fill-opacity:1;stroke:none;stroke-width:1.65301478"
     d="M 113.51682,525.73093 V 500.9357 h 28.10124 28.10126 v 24.79523 24.79522 h -28.10126 -28.10124 z"
     id="path2238"
     inkscape:connector-curvature="0" />
  <path
     style="fill:#e9d9a8;fill-opacity:1;stroke:none;stroke-width:1.65301478"
     d="M 394.52934,525.73093 V 500.9357 h 28.10126 28.10125 v 24.79523 24.79522 H 422.6306 394.52934 Z"
     id="path2240"
     inkscape:connector-curvature="0" />
  <path
     style="fill:none;stroke:none;stroke-width:1.00628924"
     d="m 339.71175,315.99721 v -7.83735 l -12.83019,-1.14463 c -7.0566,-0.62955 -15.54717,-1.98655 -18.86792,-3.01555 -5.60007,-1.73531 -6.06059,-2.10544 -6.35307,-5.10608 -0.3675,-3.77042 -0.66196,-3.67146 4.96869,-1.66984 6.85317,2.4362 16.76583,4.27142 25.03218,4.63444 l 7.54717,0.33142 v -22.5711 -22.57111 l -10.96357,-4.3638 c -19.83374,-7.89438 -26.77228,-14.58004 -26.77228,-25.79653 0,-7.50681 3.13101,-13.09027 10.30002,-18.36779 6.00894,-4.42353 16.46756,-8.45831 21.92493,-8.45831 5.52991,0 6.01404,-0.65672 6.01404,-8.15798 0,-5.49479 0.3137,-6.93636 1.50944,-6.93636 1.19796,0 1.50943,1.45353 1.50943,7.04403 0,3.87421 0.33962,7.05139 0.75472,7.0604 4.1423,0.0899 23.61445,2.01263 25.71081,2.53878 2.24673,0.56389 2.71686,1.24162 2.71686,3.91653 v 3.23465 l -6.94442,-1.76355 c -3.81943,-0.96996 -10.27226,-1.87173 -14.33962,-2.00393 l -7.3952,-0.24038 -0.26982,23.19093 -0.26982,23.19093 6.96805,2.58281 c 22.22889,8.23947 32.35351,16.88084 32.29162,27.56091 -0.0472,8.15115 -5.1835,14.90331 -15.19641,19.97723 -5.37633,2.72439 -15.68194,5.43371 -20.75633,5.45679 l -3.27044,0.0149 v 8.55346 c 0,6.93222 -0.2861,8.55346 -1.50943,8.55346 -1.21252,0 -1.50944,-1.54167 -1.50944,-7.83735 z m 18.50162,-17.36338 c 8.96929,-3.35584 14.54231,-11.59221 13.01405,-19.23348 -0.98779,-4.939 -8.4975,-12.24269 -16.63421,-16.17788 -4.03386,-1.95091 -8.35316,-3.85879 -9.59844,-4.23972 l -2.26415,-0.69261 v 21.83267 21.83267 l 5.11648,-0.67872 c 2.81407,-0.37331 7.47889,-1.56262 10.36627,-2.64293 z m -18.50162,-71.54321 v -22.27853 l -4.96909,0.58852 c -20.3234,2.407 -29.83928,20.16227 -17.44734,32.5542 3.30747,3.30748 18.04139,11.21628 21.15857,11.3574 0.97013,0.0439 1.25786,-5.03925 1.25786,-22.22159 z"
     id="path4176"
     inkscape:connector-curvature="0" />
  <path
     style="fill:#2bbbad;stroke:none;stroke-width:2.01257849;fill-opacity:1"
     d="m 325.21626,328.0297 c -20.36208,-5.13094 -41.9235,-22.9267 -50.05757,-41.31511 -16.64463,-37.62795 -0.66776,-81.78589 36.15412,-99.92515 7.89209,-3.88782 12.58185,-4.62245 29.50913,-4.62245 19.31628,0 20.65197,0.29016 33.20755,7.2138 15.68674,8.65029 27.91625,22.74002 34.1896,39.39014 3.68149,9.77104 4.29835,14.82539 3.646,29.87405 -0.68768,15.86381 -1.62125,19.67581 -7.51757,30.69604 -12.5037,23.36942 -34.23454,38.04971 -58.80022,39.72254 -7.02662,0.47849 -16.17559,0.0133 -20.33104,-1.03386 z"
     id="path4188"
     inkscape:connector-curvature="0" />
  <text
     xml:space="preserve"
     style="font-style:normal;font-variant:normal;font-weight:normal;font-stretch:normal;font-size:173.03512573px;line-height:1.25;font-family:'Segoe UI Symbol';-inkscape-font-specification:'Segoe UI Symbol';letter-spacing:0px;word-spacing:0px;fill:#000000;fill-opacity:1;stroke:#000000;stroke-width:5.36141443;stroke-miterlimit:4;stroke-dasharray:none;stroke-opacity:1"
     x="216.58966"
     y="387.2019"
     id="text5696-7"
     transform="scale(1.2925191,0.77368295)"><tspan
       sodipodi:role="line"
       id="tspan5694-3"
       x="216.58966"
       y="387.2019"
       style="fill:#000000;fill-opacity:1;stroke:#000000;stroke-width:5.36141443;stroke-miterlimit:4;stroke-dasharray:none;stroke-opacity:1">$</tspan></text>
</svg>
